<svg width="40" height="40" viewBox="0 0 40 40" fill="none" xmlns="http://www.w3.org/2000/svg">
<path fill-rule="evenodd" clip-rule="evenodd" d="M10.3335 3.58399H10.2772H10.2771C9.39172 3.58396 8.64274 3.58395 8.02881 3.63411C7.38536 3.68668 6.76656 3.80133 6.17704 4.10171C5.28327 4.5571 4.55662 5.28376 4.10122 6.17753C3.80084 6.76705 3.68619 7.38585 3.63362 8.0293C3.58346 8.64323 3.58348 9.39221 3.5835 10.2776V10.2777V10.334V11.334V11.3903V11.3903C3.58348 12.2758 3.58346 13.0247 3.63362 13.6387C3.68619 14.2821 3.80084 14.9009 4.10122 15.4904C4.55662 16.3842 5.28327 17.1109 6.17704 17.5663C6.76656 17.8666 7.38536 17.9813 8.02881 18.0339C8.64273 18.084 9.39171 18.084 10.2771 18.084H10.2771H10.2772H10.2772L10.3335 18.084H11.3335L11.3898 18.084H11.3898H11.3899H11.3899C12.2753 18.084 13.0243 18.084 13.6382 18.0339C14.2816 17.9813 14.9004 17.8666 15.49 17.5663C16.3837 17.1109 17.1104 16.3842 17.5658 15.4904C17.8662 14.9009 17.9808 14.2821 18.0334 13.6387C18.0835 13.0248 18.0835 12.2758 18.0835 11.3904V11.3903V11.3903V11.3903L18.0835 11.334V10.334L18.0835 10.2777V10.2776V10.2776V10.2776C18.0835 9.3922 18.0835 8.64322 18.0334 8.0293C17.9808 7.38585 17.8662 6.76705 17.5658 6.17753C17.1104 5.28376 16.3837 4.5571 15.49 4.10171C14.9004 3.80133 14.2816 3.68668 13.6382 3.63411C13.0243 3.58395 12.2753 3.58396 11.3899 3.58399H11.3898H11.3335H10.3335ZM7.46335 6.62622C7.58687 6.56329 7.7913 6.49629 8.25953 6.45803C8.7443 6.41842 9.3767 6.41732 10.3335 6.41732H11.3335C12.2903 6.41732 12.9227 6.41842 13.4075 6.45803C13.8757 6.49629 14.0801 6.56329 14.2036 6.62622C14.5643 6.80998 14.8575 7.10319 15.0413 7.46384C15.1042 7.58736 15.1712 7.79179 15.2095 8.26002C15.2491 8.74479 15.2502 9.37719 15.2502 10.334V11.334C15.2502 12.2908 15.2491 12.9232 15.2095 13.408C15.1712 13.8762 15.1042 14.0806 15.0413 14.2041C14.8575 14.5648 14.5643 14.858 14.2036 15.0417C14.0801 15.1047 13.8757 15.1717 13.4075 15.2099C12.9227 15.2496 12.2903 15.2507 11.3335 15.2507H10.3335C9.3767 15.2507 8.7443 15.2496 8.25953 15.2099C7.7913 15.1717 7.58687 15.1047 7.46335 15.0417C7.10271 14.858 6.80949 14.5648 6.62574 14.2041C6.5628 14.0806 6.4958 13.8762 6.45754 13.408C6.41793 12.9232 6.41683 12.2908 6.41683 11.334V10.334C6.41683 9.37719 6.41793 8.74479 6.45754 8.26002C6.4958 7.79179 6.5628 7.58736 6.62574 7.46384C6.80949 7.10319 7.10271 6.80998 7.46335 6.62622ZM10.3335 21.9173H10.2772H10.2772H10.2772H10.2772C9.39172 21.9173 8.64274 21.9173 8.02881 21.9674C7.38536 22.02 6.76656 22.1347 6.17704 22.435C5.28327 22.8904 4.55662 23.6171 4.10122 24.5109C3.80084 25.1004 3.68619 25.7192 3.63362 26.3626C3.58346 26.9766 3.58348 27.7255 3.5835 28.611V28.611V28.6673V29.6673V29.7236V29.7237C3.58348 30.6091 3.58346 31.3581 3.63362 31.972C3.68619 32.6155 3.80084 33.2343 4.10122 33.8238C4.55662 34.7175 5.28327 35.4442 6.17704 35.8996C6.76656 36.2 7.38536 36.3146 8.02881 36.3672C8.64274 36.4174 9.39173 36.4173 10.2772 36.4173L10.3335 36.4173H11.3335L11.3898 36.4173C12.2753 36.4173 13.0243 36.4174 13.6382 36.3672C14.2816 36.3146 14.9004 36.2 15.49 35.8996C16.3837 35.4442 17.1104 34.7175 17.5658 33.8238C17.8662 33.2343 17.9808 32.6155 18.0334 31.972C18.0835 31.3581 18.0835 30.6091 18.0835 29.7237V29.7237V29.7237V29.7236L18.0835 29.6673V28.6673L18.0835 28.611V28.611V28.611V28.611C18.0835 27.7255 18.0835 26.9766 18.0334 26.3626C17.9808 25.7192 17.8662 25.1004 17.5658 24.5109C17.1104 23.6171 16.3837 22.8904 15.49 22.435C14.9004 22.1347 14.2816 22.02 13.6382 21.9674C13.0243 21.9173 12.2753 21.9173 11.3898 21.9173H11.3898H11.3898H11.3898H11.3335H10.3335ZM7.46335 24.9596C7.58687 24.8966 7.7913 24.8296 8.25953 24.7914C8.7443 24.7518 9.3767 24.7507 10.3335 24.7507H11.3335C12.2903 24.7507 12.9227 24.7518 13.4075 24.7914C13.8757 24.8296 14.0801 24.8966 14.2036 24.9596C14.5643 25.1433 14.8575 25.4365 15.0413 25.7972C15.1042 25.9207 15.1712 26.1251 15.2095 26.5934C15.2491 27.0781 15.2502 27.7105 15.2502 28.6673V29.6673C15.2502 30.6241 15.2491 31.2565 15.2095 31.7413C15.1712 32.2095 15.1042 32.4139 15.0413 32.5375C14.8575 32.8981 14.5643 33.1913 14.2036 33.3751C14.0801 33.438 13.8757 33.505 13.4075 33.5433C12.9227 33.5829 12.2903 33.584 11.3335 33.584H10.3335C9.3767 33.584 8.7443 33.5829 8.25953 33.5433C7.7913 33.505 7.58687 33.438 7.46335 33.3751C7.10271 33.1913 6.80949 32.8981 6.62574 32.5375C6.5628 32.4139 6.4958 32.2095 6.45754 31.7413C6.41793 31.2565 6.41683 30.6241 6.41683 29.6673V28.6673C6.41683 27.7105 6.41793 27.0781 6.45754 26.5934C6.4958 26.1251 6.5628 25.9207 6.62574 25.7972C6.80949 25.4365 7.10271 25.1433 7.46335 24.9596ZM28.6105 21.9173H28.6668H29.6668H29.7231H29.7232H29.7232C30.6086 21.9173 31.3576 21.9173 31.9715 21.9674C32.615 22.02 33.2338 22.1347 33.8233 22.435C34.7171 22.8904 35.4437 23.6171 35.8991 24.5109C36.1995 25.1004 36.3141 25.7192 36.3667 26.3626C36.4169 26.9766 36.4169 27.7256 36.4168 28.611L36.4168 28.6673V29.6673L36.4168 29.7236C36.4169 30.6091 36.4169 31.3581 36.3667 31.972C36.3141 32.6155 36.1995 33.2343 35.8991 33.8238C35.4437 34.7175 34.7171 35.4442 33.8233 35.8996C33.2338 36.2 32.615 36.3146 31.9715 36.3672C31.3576 36.4174 30.6086 36.4173 29.7232 36.4173L29.6668 36.4173H28.6668L28.6105 36.4173C27.7251 36.4173 26.9761 36.4174 26.3621 36.3672C25.7187 36.3146 25.0999 36.2 24.5104 35.8996C23.6166 35.4442 22.8899 34.7175 22.4346 33.8238C22.1342 33.2343 22.0195 32.6155 21.967 31.972C21.9168 31.3581 21.9168 30.6091 21.9168 29.7237V29.7236V29.7236V29.6673V28.6673V28.611V28.611V28.611C21.9168 27.7256 21.9168 26.9766 21.967 26.3626C22.0195 25.7192 22.1342 25.1004 22.4346 24.5109C22.8899 23.6171 23.6166 22.8904 24.5104 22.435C25.0999 22.1347 25.7187 22.02 26.3621 21.9674C26.9761 21.9173 27.7251 21.9173 28.6105 21.9173H28.6105H28.6105ZM26.5929 24.7914C26.1246 24.8296 25.9202 24.8966 25.7967 24.9596C25.436 25.1433 25.1428 25.4365 24.9591 25.7972C24.8961 25.9207 24.8291 26.1251 24.7909 26.5934C24.7513 27.0781 24.7502 27.7105 24.7502 28.6673V29.6673C24.7502 30.6241 24.7513 31.2565 24.7909 31.7413C24.8291 32.2095 24.8961 32.4139 24.9591 32.5375C25.1428 32.8981 25.436 33.1913 25.7967 33.3751C25.9202 33.438 26.1246 33.505 26.5929 33.5433C27.0776 33.5829 27.71 33.584 28.6668 33.584H29.6668C30.6236 33.584 31.256 33.5829 31.7408 33.5433C32.209 33.505 32.4135 33.438 32.537 33.3751C32.8976 33.1913 33.1908 32.8981 33.3746 32.5375C33.4375 32.4139 33.5045 32.2095 33.5428 31.7413C33.5824 31.2565 33.5835 30.6241 33.5835 29.6673V28.6673C33.5835 27.7105 33.5824 27.0781 33.5428 26.5934C33.5045 26.1251 33.4375 25.9207 33.3746 25.7972C33.1908 25.4365 32.8976 25.1433 32.537 24.9596C32.4135 24.8966 32.209 24.8296 31.7408 24.7914C31.256 24.7518 30.6236 24.7507 29.6668 24.7507H28.6668C27.71 24.7507 27.0776 24.7518 26.5929 24.7914ZM30.5835 5.00065C30.5835 4.21825 29.9492 3.58399 29.1668 3.58399C28.3844 3.58399 27.7502 4.21825 27.7502 5.00065V9.41732H23.3335C22.5511 9.41732 21.9168 10.0516 21.9168 10.834C21.9168 11.6164 22.5511 12.2507 23.3335 12.2507H27.7502V16.6673C27.7502 17.4497 28.3844 18.084 29.1668 18.084C29.9492 18.084 30.5835 17.4497 30.5835 16.6673V12.2507H35.0002C35.7826 12.2507 36.4168 11.6164 36.4168 10.834C36.4168 10.0516 35.7826 9.41732 35.0002 9.41732H30.5835V5.00065Z" fill="#4F46E5"/>
</svg>
